<svg width="1380" height="1035" viewBox="0 0 1380 1035" fill="none" xmlns="http://www.w3.org/2000/svg">
<g opacity="0.35">
<path d="M856.965 650.486C857.634 650.486 858.136 650.486 858.638 650.311L899.146 723.438C897.807 725.009 896.97 726.929 896.97 729.197C896.97 733.91 900.653 737.749 905.172 737.749C908.855 737.749 911.867 735.306 912.872 731.815L994.222 731.815C995.226 735.306 998.406 737.749 1001.92 737.749C1006.44 737.749 1010.12 733.91 1010.12 729.197C1010.12 726.929 1009.29 725.009 1007.95 723.438L1048.46 650.311C1048.96 650.486 1049.63 650.486 1050.13 650.486C1054.65 650.486 1058.33 646.646 1058.33 641.934C1058.33 637.222 1054.65 633.382 1050.13 633.382C1049.46 633.382 1048.96 633.382 1048.46 633.556L1007.95 560.43C1009.29 558.859 1010.12 556.939 1010.12 554.67C1010.12 549.958 1006.44 546.118 1001.92 546.118C998.239 546.118 995.226 548.562 994.222 552.052L912.872 552.052C911.867 548.562 908.687 546.118 905.172 546.118C900.653 546.118 896.97 549.958 896.97 554.67C896.97 556.939 897.807 558.859 899.146 560.43L858.638 633.556C858.136 633.382 857.467 633.382 856.965 633.382C852.445 633.382 848.763 637.222 848.763 641.934C848.763 646.646 852.445 650.486 856.965 650.486ZM905.339 563.222C909.022 563.222 912.035 560.779 913.039 557.288L994.389 557.288C995.394 560.779 998.574 563.222 1002.09 563.222C1002.76 563.222 1003.26 563.222 1003.76 563.047L1044.27 636.174C1042.93 637.745 1042.09 639.665 1042.09 641.934C1042.09 644.203 1042.93 646.122 1044.27 647.693L1003.76 720.82C1003.26 720.646 1002.59 720.646 1002.09 720.646C998.406 720.646 995.394 723.089 994.389 726.579L913.039 726.579C912.035 723.089 908.855 720.646 905.339 720.646C904.837 720.646 904.168 720.646 903.666 720.82L863.158 647.693C864.497 646.122 865.334 644.203 865.334 641.934C865.334 639.665 864.497 637.745 863.158 636.174L903.666 563.047C904.168 563.047 904.67 563.222 905.339 563.222Z" fill="white"/>
<path d="M694.265 554.67C694.934 554.67 695.436 554.67 695.938 554.496L736.446 627.623C735.107 629.193 734.27 631.113 734.27 633.382C734.27 638.094 737.952 641.934 742.472 641.934C746.154 641.934 749.167 639.49 750.172 636L831.522 636C832.526 639.49 835.706 641.934 839.222 641.934C843.741 641.934 847.424 638.094 847.424 633.382C847.424 631.113 846.587 629.193 845.248 627.623L885.755 554.496C886.257 554.67 886.927 554.67 887.429 554.67C891.948 554.67 895.631 550.831 895.631 546.118C895.631 541.406 891.948 537.567 887.429 537.567C886.759 537.567 886.257 537.567 885.755 537.741L845.248 464.614C846.587 463.043 847.424 461.124 847.424 458.855C847.424 454.142 843.741 450.303 839.222 450.303C835.539 450.303 832.526 452.746 831.522 456.237L750.172 456.237C749.167 452.746 745.987 450.303 742.472 450.303C737.953 450.303 734.27 454.142 734.27 458.855C734.27 461.124 735.107 463.043 736.446 464.614L695.938 537.741C695.436 537.566 694.767 537.566 694.265 537.566C689.745 537.566 686.063 541.406 686.063 546.118C686.063 550.831 689.745 554.67 694.265 554.67ZM742.472 467.407C746.154 467.407 749.167 464.963 750.172 461.473L831.522 461.473C832.526 464.963 835.706 467.407 839.222 467.407C839.891 467.407 840.393 467.407 840.895 467.232L881.738 540.359C880.399 541.93 879.562 543.849 879.562 546.118C879.562 548.387 880.399 550.307 881.738 551.878L841.23 625.005C840.728 624.83 840.059 624.83 839.556 624.83C835.874 624.83 832.861 627.273 831.857 630.764L750.507 630.764C749.502 627.273 746.322 624.83 742.807 624.83C742.305 624.83 741.635 624.83 741.133 625.005L700.625 551.878C701.964 550.307 702.801 548.387 702.801 546.118C702.801 543.849 701.964 541.93 700.625 540.359L741.133 467.232C741.468 467.232 741.97 467.407 742.472 467.407Z" fill="white"/>
<path d="M856.965 847.178C857.634 847.178 858.136 847.178 858.639 847.003L899.146 920.13C897.807 921.701 896.97 923.621 896.97 925.89C896.97 930.602 900.653 934.441 905.172 934.441C908.855 934.441 911.868 931.998 912.872 928.507L994.222 928.507C995.226 931.998 998.407 934.441 1001.92 934.441C1006.44 934.441 1010.12 930.602 1010.12 925.89C1010.12 923.621 1009.29 921.701 1007.95 920.13L1048.46 847.003C1048.96 847.178 1049.63 847.178 1050.13 847.178C1054.65 847.178 1058.33 843.338 1058.33 838.626C1058.33 833.914 1054.65 830.074 1050.13 830.074C1049.46 830.074 1048.96 830.074 1048.46 830.249L1007.95 757.122C1009.29 755.551 1010.12 753.631 1010.12 751.362C1010.12 746.65 1006.44 742.811 1001.92 742.811C998.239 742.81 995.226 745.254 994.222 748.744L912.872 748.744C911.868 745.254 908.687 742.81 905.172 742.81C900.653 742.81 896.97 746.65 896.97 751.362C896.97 753.631 897.807 755.551 899.146 757.122L858.639 830.249C858.136 830.074 857.467 830.074 856.965 830.074C852.445 830.074 848.763 833.914 848.763 838.626C848.763 843.338 852.445 847.178 856.965 847.178ZM905.34 759.914C909.022 759.914 912.035 757.471 913.039 753.98L994.389 753.98C995.394 757.471 998.574 759.914 1002.09 759.914C1002.76 759.914 1003.26 759.914 1003.76 759.74L1044.27 832.867C1042.93 834.437 1042.09 836.357 1042.09 838.626C1042.09 840.895 1042.93 842.815 1044.27 844.385L1003.76 917.512C1003.26 917.338 1002.59 917.338 1002.09 917.338C998.407 917.338 995.394 919.781 994.389 923.272L913.039 923.272C912.035 919.781 908.855 917.338 905.34 917.338C904.837 917.338 904.168 917.338 903.666 917.512L863.158 844.385C864.497 842.815 865.334 840.895 865.334 838.626C865.334 836.357 864.497 834.437 863.158 832.867L903.666 759.74C904.168 759.914 904.67 759.914 905.34 759.914Z" fill="white"/>
<path d="M694.264 942.993C694.934 942.993 695.436 942.993 695.938 942.819L736.446 1015.95C735.107 1017.52 734.27 1019.44 734.27 1021.71C734.27 1026.42 737.952 1030.26 742.472 1030.26C746.154 1030.26 749.167 1027.81 750.172 1024.32L831.522 1024.32C832.526 1027.81 835.706 1030.26 839.222 1030.26C843.741 1030.26 847.423 1026.42 847.423 1021.71C847.423 1019.44 846.587 1017.52 845.247 1015.95L885.755 942.819C886.257 942.993 886.927 942.993 887.429 942.993C891.948 942.993 895.631 939.154 895.631 934.442C895.631 929.729 891.948 925.89 887.429 925.89C886.759 925.89 886.257 925.89 885.755 926.064L845.247 852.937C846.587 851.367 847.424 849.447 847.424 847.178C847.424 842.466 843.741 838.626 839.222 838.626C835.539 838.626 832.526 841.069 831.522 844.56L750.172 844.56C749.167 841.069 745.987 838.626 742.472 838.626C737.952 838.626 734.27 842.466 734.27 847.178C734.27 849.447 735.107 851.367 736.446 852.937L695.938 926.064C695.436 925.89 694.767 925.89 694.264 925.89C689.745 925.89 686.063 929.729 686.063 934.441C686.063 939.154 689.745 942.993 694.264 942.993ZM742.472 855.73C746.154 855.73 749.167 853.286 750.172 849.796L831.522 849.796C832.526 853.286 835.706 855.73 839.222 855.73C839.891 855.73 840.393 855.73 840.895 855.555L881.738 928.682C880.399 930.253 879.562 932.173 879.562 934.442C879.562 936.71 880.399 938.63 881.738 940.201L841.23 1013.33C840.728 1013.15 840.058 1013.15 839.556 1013.15C835.874 1013.15 832.861 1015.6 831.857 1019.09L750.506 1019.09C749.502 1015.6 746.322 1013.15 742.807 1013.15C742.305 1013.15 741.635 1013.15 741.133 1013.33L700.625 940.201C701.964 938.63 702.801 936.71 702.801 934.441C702.801 932.173 701.964 930.253 700.625 928.682L741.133 855.555C741.468 855.555 741.97 855.73 742.472 855.73Z" fill="white"/>
<path d="M530.393 650.486C531.062 650.486 531.564 650.486 532.067 650.311L572.574 723.438C571.235 725.009 570.398 726.929 570.398 729.197C570.398 733.91 574.081 737.749 578.6 737.749C582.283 737.749 585.296 735.306 586.3 731.815L667.65 731.815C668.654 735.306 671.835 737.749 675.35 737.749C679.869 737.749 683.552 733.91 683.552 729.197C683.552 726.929 682.715 725.009 681.376 723.438L721.883 650.311C722.385 650.486 723.055 650.486 723.557 650.486C728.077 650.486 731.759 646.646 731.759 641.934C731.759 637.222 728.077 633.382 723.557 633.382C722.888 633.382 722.385 633.382 721.883 633.556L681.376 560.43C682.715 558.859 683.552 556.939 683.552 554.67C683.552 549.958 679.869 546.118 675.35 546.118C671.667 546.118 668.654 548.562 667.65 552.052L586.3 552.052C585.296 548.562 582.115 546.118 578.6 546.118C574.081 546.118 570.398 549.958 570.398 554.67C570.398 556.939 571.235 558.859 572.574 560.43L532.067 633.556C531.564 633.382 530.895 633.382 530.393 633.382C525.873 633.382 522.191 637.222 522.191 641.934C522.191 646.646 525.873 650.486 530.393 650.486ZM578.6 563.222C582.283 563.222 585.296 560.779 586.3 557.288L667.65 557.288C668.654 560.779 671.835 563.222 675.35 563.222C676.019 563.222 676.521 563.222 677.024 563.047L717.531 636.174C716.192 637.745 715.355 639.665 715.355 641.934C715.355 644.203 716.192 646.122 717.531 647.693L677.024 720.82C676.521 720.646 675.852 720.646 675.35 720.646C671.667 720.646 668.654 723.089 667.65 726.579L586.3 726.579C585.296 723.089 582.115 720.646 578.6 720.646C578.098 720.646 577.428 720.646 576.926 720.82L536.419 647.693C537.758 646.122 538.595 644.203 538.595 641.934C538.595 639.665 537.758 637.745 536.419 636.174L577.094 563.047C577.596 563.047 578.098 563.222 578.6 563.222Z" fill="white"/>
<path d="M365.014 554.67C365.684 554.67 366.186 554.67 366.688 554.496L407.196 627.623C405.857 629.193 405.02 631.113 405.02 633.382C405.02 638.094 408.702 641.934 413.222 641.934C416.904 641.934 419.917 639.49 420.922 636L502.272 636C503.276 639.49 506.456 641.934 509.972 641.934C514.491 641.934 518.173 638.094 518.173 633.382C518.173 631.113 517.337 629.193 515.997 627.623L556.505 554.496C557.007 554.67 557.677 554.67 558.179 554.67C562.698 554.67 566.381 550.831 566.381 546.118C566.381 541.406 562.698 537.567 558.179 537.567C557.509 537.567 557.007 537.567 556.505 537.741L515.997 464.614C517.337 463.043 518.174 461.124 518.174 458.855C518.174 454.142 514.491 450.303 509.972 450.303C506.289 450.303 503.276 452.746 502.272 456.237L420.922 456.237C419.917 452.746 416.737 450.303 413.222 450.303C408.702 450.303 405.02 454.142 405.02 458.855C405.02 461.124 405.857 463.043 407.196 464.614L366.688 537.741C366.186 537.566 365.517 537.566 365.014 537.566C360.495 537.566 356.813 541.406 356.813 546.118C356.813 550.831 360.328 554.67 365.014 554.67ZM413.222 467.407C416.904 467.407 419.917 464.963 420.922 461.473L502.272 461.473C503.276 464.963 506.456 467.407 509.972 467.407C510.641 467.407 511.143 467.407 511.645 467.232L552.153 540.359C550.814 541.93 549.977 543.849 549.977 546.118C549.977 548.387 550.814 550.307 552.153 551.878L511.645 625.005C511.143 624.83 510.474 624.83 509.972 624.83C506.289 624.83 503.276 627.273 502.272 630.764L420.922 630.764C419.917 627.273 416.737 624.83 413.222 624.83C412.72 624.83 412.05 624.83 411.548 625.005L371.04 551.878C372.38 550.307 373.216 548.387 373.216 546.118C373.216 543.849 372.38 541.93 371.04 540.359L411.548 467.232C412.05 467.232 412.72 467.407 413.222 467.407Z" fill="white"/>
<path d="M198.632 261.813C199.302 261.813 199.804 261.813 200.306 261.639L240.813 334.766C239.474 336.337 238.637 338.256 238.637 340.525C238.637 345.237 242.32 349.077 246.839 349.077C250.522 349.077 253.535 346.634 254.539 343.143L336.057 343.143C337.061 346.634 340.241 349.077 343.756 349.077C348.276 349.077 351.958 345.237 351.958 340.525C351.958 338.256 351.121 336.337 349.782 334.766L390.457 261.639C390.959 261.813 391.629 261.813 392.131 261.813C396.651 261.813 400.333 257.974 400.333 253.262C400.333 248.549 396.651 244.71 392.131 244.71C391.462 244.71 390.959 244.71 390.457 244.884L349.95 171.757C351.289 170.187 352.126 168.267 352.126 165.998C352.126 161.286 348.443 157.446 343.924 157.446C340.241 157.446 337.228 159.89 336.224 163.38L254.874 163.38C253.87 159.89 250.689 157.446 247.174 157.446C242.655 157.446 238.972 161.286 238.972 165.998C238.972 168.267 239.809 170.187 241.148 171.757L200.641 244.884C200.138 244.71 199.469 244.71 198.967 244.71C194.447 244.71 190.765 248.549 190.765 253.262C190.43 257.974 194.113 261.813 198.632 261.813ZM247.007 174.55C250.689 174.55 253.702 172.106 254.707 168.616L336.057 168.616C337.061 172.106 340.241 174.55 343.756 174.55C344.426 174.55 344.928 174.55 345.43 174.375L385.938 247.502C384.599 249.073 383.762 250.993 383.762 253.262C383.762 255.53 384.599 257.45 385.938 259.021L345.43 332.148C344.928 331.973 344.258 331.973 343.756 331.973C340.074 331.973 337.061 334.417 336.057 337.907L254.707 337.907C253.702 334.417 250.522 331.973 247.007 331.973C246.505 331.973 245.835 331.973 245.333 332.148L204.825 259.021C206.164 257.45 207.001 255.53 207.001 253.262C207.001 250.993 206.164 249.073 204.825 247.502L245.333 174.375C245.835 174.55 246.337 174.55 247.007 174.55Z" fill="white"/>
<path d="M33.4211 161.111C34.0907 161.111 34.5928 161.111 35.095 160.937L75.6026 234.064C74.2636 235.634 73.4265 237.554 73.4265 239.823C73.4265 244.535 77.1091 248.375 81.6285 248.375C85.311 248.375 88.324 245.931 89.3283 242.441L170.678 242.441C171.683 245.931 174.863 248.375 178.378 248.375C182.898 248.375 186.58 244.535 186.58 239.823C186.58 237.554 185.743 235.634 184.404 234.064L224.912 160.937C225.414 161.111 226.083 161.111 226.586 161.111C231.105 161.111 234.788 157.272 234.788 152.559C234.788 147.847 231.105 144.008 226.586 144.008C225.916 144.008 225.414 144.008 224.912 144.182L184.404 71.0552C185.743 69.4844 186.58 67.5646 186.58 65.2958C186.58 60.5835 182.898 56.7439 178.378 56.7439C174.696 56.7439 171.683 59.1873 170.678 62.6779L89.3283 62.6779C88.324 59.1873 85.1437 56.7439 81.6285 56.7439C77.1091 56.7439 73.4266 60.5835 73.4266 65.2958C73.4266 67.5646 74.2636 69.4844 75.6027 71.0551L35.095 144.182C34.5928 144.008 33.9233 144.008 33.4211 144.008C28.9017 144.008 25.2191 147.847 25.2191 152.559C25.3865 157.272 28.9017 161.111 33.4211 161.111ZM81.7959 73.8476C85.4784 73.8476 88.4914 71.4042 89.4958 67.9137L170.846 67.9137C171.85 71.4042 175.03 73.8477 178.546 73.8477C179.215 73.8477 179.717 73.8476 180.219 73.6731L220.727 146.8C219.388 148.371 218.551 150.291 218.551 152.559C218.551 154.828 219.388 156.748 220.727 158.319L180.219 231.446C179.717 231.271 179.048 231.271 178.546 231.271C174.863 231.271 171.85 233.715 170.846 237.205L89.4957 237.205C88.4914 233.715 85.311 231.271 81.7959 231.271C81.2937 231.271 80.6242 231.271 80.122 231.446L39.6145 158.319C40.9536 156.748 41.7905 154.828 41.7905 152.559C41.7905 150.291 40.9536 148.371 39.6145 146.8L80.122 73.6731C80.6242 73.8476 81.2937 73.8476 81.7959 73.8476Z" fill="white"/>
<path d="M365.015 357.803C365.684 357.803 366.186 357.803 366.688 357.629L407.196 430.756C405.857 432.327 405.02 434.246 405.02 436.515C405.02 441.227 408.703 445.067 413.222 445.067C416.904 445.067 419.917 442.624 420.922 439.133L502.272 439.133C503.276 442.624 506.456 445.067 509.972 445.067C514.491 445.067 518.174 441.227 518.174 436.515C518.174 434.246 517.337 432.327 515.998 430.756L556.673 357.629C557.175 357.803 557.844 357.803 558.346 357.803C562.866 357.803 566.548 353.964 566.548 349.252C566.548 344.539 562.866 340.7 558.346 340.7C557.677 340.7 557.175 340.7 556.673 340.874L516.165 267.747C517.504 266.177 518.341 264.257 518.341 261.988C518.341 257.276 514.658 253.436 510.139 253.436C506.457 253.436 503.444 255.88 502.439 259.37L421.089 259.37C420.085 255.88 416.905 253.436 413.389 253.436C408.87 253.436 405.187 257.276 405.187 261.988C405.187 264.257 406.024 266.177 407.363 267.747L366.856 340.874C366.354 340.7 365.684 340.7 365.182 340.7C360.663 340.7 356.98 344.539 356.98 349.252C356.813 354.138 360.328 357.803 365.015 357.803ZM413.222 270.714C416.904 270.714 419.918 268.271 420.922 264.78L502.272 264.78C503.276 268.271 506.456 270.714 509.972 270.714C510.641 270.714 511.143 270.714 511.645 270.54L552.321 343.667C550.981 345.237 550.144 347.157 550.144 349.426C550.144 351.695 550.981 353.615 552.321 355.185L511.813 428.312C511.311 428.138 510.641 428.138 510.139 428.138C506.456 428.138 503.444 430.581 502.439 434.072L421.089 434.072C420.085 430.581 416.905 428.138 413.389 428.138C412.887 428.138 412.218 428.138 411.716 428.312L371.208 355.185C372.547 353.615 373.384 351.695 373.384 349.426C373.384 347.157 372.547 345.237 371.208 343.667L411.716 270.54C412.05 270.54 412.72 270.714 413.222 270.714Z" fill="white"/>
<path d="M365.015 161.111C365.684 161.111 366.186 161.111 366.688 160.937L407.196 234.064C405.857 235.634 405.02 237.554 405.02 239.823C405.02 244.535 408.703 248.375 413.222 248.375C416.904 248.375 419.918 245.932 420.922 242.441L502.272 242.441C503.276 245.932 506.457 248.375 509.972 248.375C514.491 248.375 518.174 244.535 518.174 239.823C518.174 237.554 517.337 235.634 515.998 234.064L556.505 160.937C557.007 161.111 557.677 161.111 558.179 161.111C562.699 161.111 566.381 157.272 566.381 152.559C566.381 147.847 562.699 144.008 558.179 144.008C557.51 144.008 557.007 144.008 556.505 144.182L515.998 71.0552C517.337 69.4844 518.174 67.5647 518.174 65.2958C518.174 60.5836 514.491 56.7439 509.972 56.7439C506.289 56.7439 503.276 59.1873 502.272 62.6779L420.922 62.6779C419.918 59.1873 416.737 56.7439 413.222 56.7439C408.703 56.7439 405.02 60.5836 405.02 65.2958C405.02 67.5646 405.857 69.4844 407.196 71.0552L366.688 144.182C366.186 144.008 365.517 144.008 365.015 144.008C360.495 144.008 356.813 147.847 356.813 152.559C356.813 157.272 360.328 161.111 365.015 161.111ZM413.222 73.8477C416.905 73.8477 419.918 71.4043 420.922 67.9137L502.272 67.9137C503.276 71.4043 506.457 73.8477 509.972 73.8477C510.641 73.8477 511.143 73.8476 511.646 73.6731L552.153 146.8C550.814 148.371 549.977 150.291 549.977 152.559C549.977 154.828 550.814 156.748 552.153 158.319L511.646 231.446C511.143 231.271 510.474 231.271 509.972 231.271C506.289 231.271 503.276 233.715 502.272 237.205L420.922 237.205C419.918 233.715 416.737 231.271 413.222 231.271C412.72 231.271 412.05 231.271 411.548 231.446L371.041 158.319C372.38 156.748 373.217 154.828 373.217 152.559C373.217 150.291 372.38 148.371 371.041 146.8L411.548 73.6731C412.05 73.8476 412.72 73.8477 413.222 73.8477Z" fill="white"/>
<path d="M1186.72 453.444C1187.39 453.444 1187.89 453.444 1188.39 453.27L1228.9 526.397C1227.56 527.967 1226.72 529.887 1226.72 532.156C1226.72 536.868 1230.4 540.708 1234.92 540.708C1238.61 540.708 1241.62 538.265 1242.62 534.774L1323.97 534.774C1324.98 538.265 1328.16 540.708 1331.67 540.708C1336.19 540.708 1339.88 536.868 1339.88 532.156C1339.88 529.887 1339.04 527.967 1337.7 526.397L1378.21 453.27C1378.71 453.444 1379.38 453.444 1379.88 453.444C1384.4 453.444 1388.08 449.605 1388.08 444.893C1388.08 440.18 1384.4 436.341 1379.88 436.341C1379.21 436.341 1378.71 436.341 1378.21 436.515L1337.7 363.388C1339.04 361.818 1339.88 359.898 1339.88 357.629C1339.88 352.917 1336.19 349.077 1331.67 349.077C1327.99 349.077 1324.98 351.52 1323.97 355.011L1242.62 355.011C1241.62 351.52 1238.44 349.077 1234.92 349.077C1230.4 349.077 1226.72 352.917 1226.72 357.629C1226.72 359.898 1227.56 361.818 1228.9 363.388L1188.39 436.515C1187.89 436.341 1187.22 436.341 1186.72 436.341C1182.2 436.341 1178.51 440.18 1178.51 444.892C1178.51 449.605 1182.2 453.444 1186.72 453.444ZM1235.09 366.181C1238.77 366.181 1241.79 363.737 1242.79 360.247L1324.14 360.247C1325.15 363.737 1328.33 366.181 1331.84 366.181C1332.51 366.181 1333.01 366.181 1333.52 366.006L1374.02 439.133C1372.68 440.704 1371.85 442.624 1371.85 444.893C1371.85 447.161 1372.68 449.081 1374.02 450.652L1333.52 523.779C1333.01 523.604 1332.34 523.604 1331.84 523.604C1328.16 523.604 1325.15 526.048 1324.14 529.538L1242.79 529.538C1241.79 526.048 1238.61 523.604 1235.09 523.604C1234.59 523.604 1233.92 523.604 1233.42 523.779L1192.91 450.652C1194.25 449.081 1195.09 447.161 1195.09 444.892C1195.09 442.624 1194.25 440.704 1192.91 439.133L1233.42 366.006C1233.92 366.006 1234.42 366.181 1235.09 366.181Z" fill="white"/>
<path d="M530.393 453.444C531.062 453.444 531.565 453.444 532.067 453.27L572.574 526.397C571.235 527.967 570.398 529.887 570.398 532.156C570.398 536.868 574.081 540.708 578.6 540.708C582.283 540.708 585.296 538.265 586.3 534.774L667.65 534.774C668.654 538.265 671.835 540.708 675.35 540.708C679.869 540.708 683.552 536.868 683.552 532.156C683.552 529.887 682.715 527.967 681.376 526.397L721.884 453.27C722.386 453.444 723.055 453.444 723.557 453.444C728.077 453.444 731.759 449.605 731.759 444.893C731.759 440.18 728.077 436.341 723.557 436.341C722.888 436.341 722.386 436.341 721.884 436.515L681.376 363.388C682.715 361.818 683.552 359.898 683.552 357.629C683.552 352.917 679.869 349.077 675.35 349.077C671.667 349.077 668.655 351.52 667.65 355.011L586.3 355.011C585.296 351.52 582.115 349.077 578.6 349.077C574.081 349.077 570.398 352.917 570.398 357.629C570.398 359.898 571.235 361.818 572.574 363.388L532.067 436.515C531.565 436.341 530.895 436.341 530.393 436.341C525.873 436.341 522.191 440.18 522.191 444.892C522.191 449.605 525.873 453.444 530.393 453.444ZM578.6 366.181C582.283 366.181 585.296 363.737 586.3 360.247L667.65 360.247C668.655 363.737 671.835 366.181 675.35 366.181C676.02 366.181 676.522 366.181 677.024 366.006L717.531 439.133C716.192 440.704 715.355 442.624 715.355 444.893C715.355 447.161 716.192 449.081 717.531 450.652L677.024 523.779C676.522 523.604 675.852 523.604 675.35 523.604C671.667 523.604 668.654 526.048 667.65 529.538L586.3 529.538C585.296 526.048 582.115 523.604 578.6 523.604C578.098 523.604 577.429 523.604 576.926 523.779L536.419 450.652C537.758 449.081 538.595 447.161 538.595 444.892C538.595 442.624 537.758 440.704 536.419 439.133L577.094 366.006C577.596 366.006 578.098 366.181 578.6 366.181Z" fill="white"/>
<path d="M694.265 357.629C694.934 357.629 695.436 357.629 695.939 357.454L736.446 430.581C735.107 432.152 734.27 434.072 734.27 436.341C734.27 441.053 737.953 444.893 742.472 444.893C746.155 444.893 749.168 442.449 750.172 438.959L831.522 438.959C832.526 442.449 835.707 444.893 839.222 444.893C843.741 444.893 847.424 441.053 847.424 436.341C847.424 434.072 846.587 432.152 845.248 430.581L885.755 357.454C886.257 357.629 886.927 357.629 887.429 357.629C891.949 357.629 895.631 353.789 895.631 349.077C895.631 344.365 891.949 340.525 887.429 340.525C886.76 340.525 886.257 340.525 885.755 340.7L845.248 267.573C846.587 266.002 847.424 264.082 847.424 261.813C847.424 257.101 843.741 253.262 839.222 253.262C835.539 253.262 832.526 255.705 831.522 259.195L750.172 259.195C749.168 255.705 745.987 253.262 742.472 253.262C737.953 253.262 734.27 257.101 734.27 261.813C734.27 264.082 735.107 266.002 736.446 267.573L695.939 340.7C695.436 340.525 694.767 340.525 694.265 340.525C689.745 340.525 686.063 344.365 686.063 349.077C686.063 353.789 689.745 357.629 694.265 357.629ZM742.472 270.365C746.155 270.365 749.168 267.922 750.172 264.431L831.522 264.431C832.526 267.922 835.707 270.365 839.222 270.365C839.891 270.365 840.393 270.365 840.896 270.191L881.738 343.318C880.399 344.888 879.562 346.808 879.562 349.077C879.562 351.346 880.399 353.266 881.738 354.836L841.23 427.963C840.728 427.789 840.059 427.789 839.556 427.789C835.874 427.789 832.861 430.232 831.857 433.723L750.507 433.723C749.502 430.232 746.322 427.789 742.807 427.789C742.305 427.789 741.635 427.789 741.133 427.963L700.625 354.836C701.964 353.266 702.801 351.346 702.801 349.077C702.801 346.808 701.964 344.888 700.625 343.318L741.133 270.191C741.468 270.365 741.97 270.365 742.472 270.365Z" fill="white"/>
<path d="M856.965 453.444C857.634 453.444 858.136 453.444 858.639 453.27L899.146 526.397C897.807 527.968 896.97 529.887 896.97 532.156C896.97 536.868 900.653 540.708 905.172 540.708C908.855 540.708 911.868 538.265 912.872 534.774L994.222 534.774C995.226 538.265 998.407 540.708 1001.92 540.708C1006.44 540.708 1010.12 536.868 1010.12 532.156C1010.12 529.887 1009.29 527.968 1007.95 526.397L1048.46 453.27C1048.96 453.444 1049.63 453.444 1050.13 453.444C1054.65 453.444 1058.33 449.605 1058.33 444.893C1058.33 440.18 1054.65 436.341 1050.13 436.341C1049.46 436.341 1048.96 436.341 1048.46 436.515L1007.95 363.388C1009.29 361.818 1010.12 359.898 1010.12 357.629C1010.12 352.917 1006.44 349.077 1001.92 349.077C998.239 349.077 995.226 351.52 994.222 355.011L912.872 355.011C911.868 351.52 908.687 349.077 905.172 349.077C900.653 349.077 896.97 352.917 896.97 357.629C896.97 359.898 897.807 361.818 899.146 363.388L858.639 436.515C858.136 436.341 857.467 436.341 856.965 436.341C852.445 436.341 848.763 440.18 848.763 444.893C848.763 449.605 852.445 453.444 856.965 453.444ZM905.34 366.181C909.022 366.181 912.035 363.737 913.039 360.247L994.389 360.247C995.394 363.737 998.574 366.181 1002.09 366.181C1002.76 366.181 1003.26 366.181 1003.76 366.006L1044.27 439.133C1042.93 440.704 1042.09 442.624 1042.09 444.893C1042.09 447.161 1042.93 449.081 1044.27 450.652L1003.76 523.779C1003.26 523.604 1002.59 523.604 1002.09 523.604C998.407 523.604 995.394 526.048 994.389 529.538L913.039 529.538C912.035 526.048 908.855 523.604 905.34 523.604C904.837 523.604 904.168 523.604 903.666 523.779L863.158 450.652C864.497 449.081 865.334 447.161 865.334 444.893C865.334 442.624 864.497 440.704 863.158 439.133L903.666 366.006C904.168 366.006 904.67 366.181 905.34 366.181Z" fill="white"/>
<path d="M1024.02 554.67C1024.69 554.67 1025.19 554.67 1025.69 554.496L1066.2 627.623C1064.86 629.193 1064.02 631.113 1064.02 633.382C1064.02 638.094 1067.7 641.934 1072.22 641.934C1075.91 641.934 1078.92 639.49 1079.92 636L1161.27 636C1162.28 639.49 1165.46 641.934 1168.97 641.934C1173.49 641.934 1177.18 638.094 1177.18 633.382C1177.18 631.113 1176.34 629.193 1175 627.623L1215.51 554.496C1216.01 554.67 1216.68 554.67 1217.18 554.67C1221.7 554.67 1225.38 550.831 1225.38 546.118C1225.38 541.406 1221.7 537.567 1217.18 537.567C1216.51 537.567 1216.01 537.567 1215.51 537.741L1175 464.614C1176.34 463.043 1177.18 461.124 1177.18 458.855C1177.18 454.142 1173.49 450.303 1168.97 450.303C1165.29 450.303 1162.28 452.746 1161.27 456.237L1079.92 456.237C1078.92 452.746 1075.74 450.303 1072.22 450.303C1067.7 450.303 1064.02 454.142 1064.02 458.855C1064.02 461.124 1064.86 463.043 1066.2 464.614L1025.69 537.741C1025.19 537.566 1024.52 537.566 1024.02 537.566C1019.5 537.566 1015.81 541.406 1015.81 546.118C1015.81 550.831 1019.5 554.67 1024.02 554.67ZM1072.22 467.407C1075.91 467.407 1078.92 464.963 1079.92 461.473L1161.27 461.473C1162.28 464.963 1165.46 467.407 1168.97 467.407C1169.64 467.407 1170.15 467.407 1170.65 467.232L1211.16 540.359C1209.82 541.93 1208.98 543.849 1208.98 546.118C1208.98 548.387 1209.82 550.307 1211.16 551.878L1170.65 625.005C1170.15 624.83 1169.48 624.83 1168.97 624.83C1165.29 624.83 1162.28 627.273 1161.27 630.764L1079.92 630.764C1078.92 627.273 1075.74 624.83 1072.22 624.83C1071.72 624.83 1071.05 624.83 1070.55 625.005L1030.04 551.878C1031.38 550.307 1032.22 548.387 1032.22 546.118C1032.22 543.849 1031.38 541.93 1030.04 540.359L1070.55 467.232C1071.05 467.232 1071.72 467.407 1072.22 467.407Z" fill="white"/>
<path d="M-130.785 261.813C-130.116 261.813 -129.614 261.813 -129.112 261.639L-88.6039 334.766C-89.943 336.336 -90.7799 338.256 -90.7799 340.525C-90.7799 345.237 -87.0973 349.077 -82.5779 349.077C-78.8954 349.077 -75.8825 346.634 -74.8781 343.143L6.47187 343.143C7.47619 346.634 10.6566 349.077 14.1717 349.077C18.6912 349.077 22.3736 345.237 22.3736 340.525C22.3736 338.256 21.5367 336.336 20.1976 334.766L61.0401 261.639C61.5422 261.813 62.2118 261.813 62.7139 261.813C67.2334 261.813 70.9158 257.974 70.9158 253.262C70.9158 248.549 67.2334 244.71 62.7139 244.71C62.0444 244.71 61.5422 244.71 61.0401 244.884L20.5324 171.757C21.8715 170.187 22.7084 168.267 22.7084 165.998C22.7084 161.286 19.026 157.446 14.5065 157.446C10.824 157.446 7.811 159.889 6.80668 163.38L-74.5433 163.38C-75.5476 159.889 -78.7281 157.446 -82.2432 157.446C-86.7626 157.446 -90.4451 161.286 -90.4451 165.998C-90.4451 168.267 -89.6082 170.186 -88.2691 171.757L-128.777 244.884C-129.279 244.71 -129.948 244.71 -130.451 244.71C-134.97 244.71 -138.652 248.549 -138.652 253.261C-138.987 257.974 -135.305 261.813 -130.785 261.813ZM-82.5779 174.55C-78.8954 174.55 -75.8824 172.106 -74.8781 168.616L6.47188 168.616C7.47621 172.106 10.6566 174.55 14.1717 174.55C14.8413 174.55 15.3435 174.55 15.8456 174.375L56.3533 247.502C55.0142 249.073 54.1771 250.993 54.1771 253.262C54.1771 255.53 55.0142 257.45 56.3533 259.021L15.8456 332.148C15.3434 331.973 14.6739 331.973 14.1717 331.973C10.4892 331.973 7.47619 334.417 6.47187 337.907L-74.8781 337.907C-75.8825 334.417 -79.0628 331.973 -82.5779 331.973C-83.08 331.973 -83.7496 331.973 -84.2518 332.148L-124.759 259.021C-123.42 257.45 -122.583 255.53 -122.583 253.261C-122.583 250.993 -123.42 249.073 -124.759 247.502L-84.0844 174.375C-83.5822 174.55 -83.08 174.55 -82.5779 174.55Z" fill="white"/>
</g>
<path d="M215.203 639.316L312.957 639.316L361.667 551.354L312.957 463.218L215.203 463.218L166.493 551.354L215.203 639.316Z" fill="#FFC50C"/>
<path d="M1168.81 260.766L1266.39 260.766L1315.27 172.63L1266.39 84.6682L1168.81 84.6682L1119.93 172.63L1168.81 260.766Z" fill="#FFC50C"/>
<path opacity="0.45" d="M375.225 733.386L472.812 733.386L521.689 645.25L472.812 557.288L375.225 557.288L326.515 645.25L375.225 733.386Z" fill="#FFC50C"/>
<path opacity="0.45" d="M534.41 450.652L632.164 450.652L680.873 362.516L632.164 274.554L534.41 274.554L485.7 362.516L534.41 450.652Z" fill="#FFC50C"/>
<path d="M53.5072 543.675L151.094 543.675L199.971 455.539L151.094 367.402L53.5072 367.402L4.63023 455.539L53.5072 543.675Z" fill="#FFC50C"/>
<path opacity="0.25" d="M1010.46 353.789L1108.04 353.789L1156.92 265.828L1108.04 177.691L1010.46 177.691L961.581 265.828L1010.46 353.789Z" fill="#FFC50C"/>
<path d="M696.273 923.097L793.86 923.097L842.737 834.961L793.86 746.999L696.273 746.999L647.396 834.961L696.273 923.097Z" fill="#FFC50C"/>
<path d="M536.921 641.061L634.675 641.061L683.384 553.099L634.675 464.963L536.921 464.963L488.211 553.099L536.921 641.061Z" fill="#FFC50C"/>
<path d="M1168.81 829.027L1266.39 829.027L1315.27 740.891L1266.39 652.929L1168.81 652.929L1119.93 740.891L1168.81 829.027Z" fill="#FFC50C"/>
<path d="M852.947 258.148L950.534 258.148L999.411 170.186L950.534 82.0502L852.947 82.0502L804.07 170.186L852.947 258.148Z" fill="#FFC50C"/>
<path opacity="0.75" d="M1010.46 543.675L1108.04 543.675L1156.92 455.539L1108.04 367.402L1010.46 367.402L961.581 455.539L1010.46 543.675Z" fill="#FFC50C"/>
<path opacity="0.45" d="M853.784 829.027L951.371 829.027L1000.25 740.891L951.371 652.929L853.784 652.929L804.907 740.891L853.784 829.027Z" fill="#FFC50C"/>
<path d="M1168.81 453.27L1266.39 453.27L1315.27 365.134L1266.39 277.172L1168.81 277.172L1119.93 365.134L1168.81 453.27Z" fill="#FFC50C"/>
<path opacity="0.45" d="M1011.3 164.078L1108.88 164.078L1157.76 76.1162L1108.88 -12.02L1011.3 -12.02L962.418 76.1162L1011.3 164.078Z" fill="#FFC50C"/>
<path d="M696.273 543.675L793.86 543.675L842.737 455.539L793.86 367.402L696.273 367.402L647.396 455.539L696.273 543.675Z" fill="#FFC50C"/>
<path d="M1022.01 159.017C1022.68 159.017 1023.18 159.017 1023.68 158.842L1064.19 231.969C1062.85 233.54 1062.01 235.46 1062.01 237.729C1062.01 242.441 1065.7 246.281 1070.22 246.281C1073.9 246.281 1076.91 243.837 1077.92 240.347L1159.27 240.347C1160.27 243.837 1163.45 246.281 1166.96 246.281C1171.48 246.281 1175.17 242.441 1175.17 237.729C1175.17 235.46 1174.33 233.54 1172.99 231.969L1213.5 158.842C1214 159.017 1214.67 159.017 1215.17 159.017C1219.69 159.017 1223.37 155.177 1223.37 150.465C1223.37 145.753 1219.69 141.913 1215.17 141.913C1214.5 141.913 1214 141.913 1213.5 142.088L1172.99 68.9608C1174.33 67.39 1175.17 65.4703 1175.17 63.2014C1175.17 58.4892 1171.48 54.6496 1166.96 54.6496C1163.28 54.6496 1160.27 57.093 1159.27 60.5835L1077.92 60.5835C1076.91 57.093 1073.73 54.6496 1070.22 54.6496C1065.7 54.6496 1062.01 58.4892 1062.01 63.2014C1062.01 65.4703 1062.85 67.39 1064.19 68.9608L1023.68 142.088C1023.18 141.913 1022.51 141.913 1022.01 141.913C1017.49 141.913 1013.81 145.753 1013.81 150.465C1013.81 155.177 1017.49 159.017 1022.01 159.017ZM1070.22 71.7533C1073.9 71.7533 1076.91 69.3099 1077.92 65.8193L1159.27 65.8193C1160.27 69.3099 1163.45 71.7533 1166.96 71.7533C1167.63 71.7533 1168.14 71.7532 1168.64 71.5787L1209.31 144.706C1207.97 146.276 1207.14 148.196 1207.14 150.465C1207.14 152.734 1207.97 154.654 1209.31 156.224L1168.81 229.351C1168.3 229.177 1167.63 229.177 1167.13 229.177C1163.45 229.177 1160.44 231.62 1159.43 235.111L1078.08 235.111C1077.08 231.62 1073.9 229.177 1070.38 229.177C1069.88 229.177 1069.21 229.177 1068.71 229.351L1028.2 156.224C1029.54 154.654 1030.38 152.734 1030.38 150.465C1030.38 148.196 1029.54 146.276 1028.2 144.706L1068.71 71.5787C1069.04 71.7532 1069.71 71.7533 1070.22 71.7533Z" fill="white"/>
<path d="M859.308 63.2014C859.977 63.2014 860.48 63.2014 860.982 63.0269L901.489 136.154C900.15 137.725 899.313 139.644 899.313 141.913C899.313 146.625 902.996 150.465 907.515 150.465C911.198 150.465 914.211 148.022 915.215 144.531L996.565 144.531C997.569 148.022 1000.75 150.465 1004.26 150.465C1008.78 150.465 1012.47 146.625 1012.47 141.913C1012.47 139.644 1011.63 137.725 1010.29 136.154L1050.8 63.0269C1051.3 63.2014 1051.97 63.2014 1052.47 63.2014C1056.99 63.2014 1060.67 59.3619 1060.67 54.6496C1060.67 49.9374 1056.99 46.0978 1052.47 46.0978C1051.8 46.0978 1051.3 46.0977 1050.8 46.2722L1010.29 -26.8546C1011.63 -28.4254 1012.47 -30.3451 1012.47 -32.614C1012.47 -37.3262 1008.78 -41.1659 1004.26 -41.1659C1000.58 -41.1659 997.569 -38.7225 996.565 -35.2319L915.215 -35.2319C914.211 -38.7225 911.03 -41.1659 907.515 -41.1659C902.996 -41.1659 899.313 -37.3262 899.313 -32.614C899.313 -30.3452 900.15 -28.4254 901.489 -26.8546L860.982 46.2722C860.48 46.0977 859.81 46.0977 859.308 46.0977C854.788 46.0977 851.106 49.9374 851.106 54.6496C851.106 59.3618 854.788 63.2014 859.308 63.2014ZM907.515 -24.0622C911.198 -24.0622 914.211 -26.5056 915.215 -29.9961L996.565 -29.9961C997.569 -26.5055 1000.75 -24.0622 1004.26 -24.0622C1004.93 -24.0622 1005.44 -24.0622 1005.94 -24.2367L1046.45 48.8901C1045.11 50.4609 1044.27 52.3808 1044.27 54.6496C1044.27 56.9185 1045.11 58.8383 1046.45 60.409L1005.94 133.536C1005.44 133.361 1004.77 133.361 1004.26 133.361C1000.58 133.361 997.569 135.805 996.565 139.295L915.215 139.295C914.211 135.805 911.03 133.361 907.515 133.361C907.013 133.361 906.344 133.361 905.841 133.536L865.334 60.409C866.673 58.8382 867.51 56.9185 867.51 54.6496C867.51 52.3808 866.673 50.4609 865.334 48.8901L905.841 -24.2367C906.344 -24.0622 907.013 -24.0622 907.515 -24.0622Z" fill="white"/>
<path d="M1022.01 355.709C1022.68 355.709 1023.18 355.709 1023.68 355.535L1064.19 428.662C1062.85 430.232 1062.01 432.152 1062.01 434.421C1062.01 439.133 1065.7 442.973 1070.22 442.973C1073.9 442.973 1076.91 440.529 1077.92 437.039L1159.27 437.039C1160.27 440.529 1163.45 442.973 1166.97 442.973C1171.48 442.973 1175.17 439.133 1175.17 434.421C1175.17 432.152 1174.33 430.232 1172.99 428.662L1213.5 355.535C1214 355.709 1214.67 355.709 1215.17 355.709C1219.69 355.709 1223.37 351.87 1223.37 347.157C1223.37 342.445 1219.69 338.605 1215.17 338.605C1214.5 338.605 1214 338.606 1213.5 338.78L1172.99 265.653C1174.33 264.082 1175.17 262.163 1175.17 259.894C1175.17 255.181 1171.48 251.342 1166.97 251.342C1163.28 251.342 1160.27 253.785 1159.27 257.276L1077.92 257.276C1076.91 253.785 1073.73 251.342 1070.22 251.342C1065.7 251.342 1062.01 255.181 1062.01 259.894C1062.01 262.163 1062.85 264.082 1064.19 265.653L1023.68 338.78C1023.18 338.606 1022.51 338.605 1022.01 338.605C1017.49 338.605 1013.81 342.445 1013.81 347.157C1013.81 351.87 1017.49 355.709 1022.01 355.709ZM1070.22 268.446C1073.9 268.446 1076.91 266.002 1077.92 262.512L1159.27 262.512C1160.27 266.002 1163.45 268.446 1166.97 268.446C1167.63 268.446 1168.14 268.446 1168.64 268.271L1209.15 341.398C1207.81 342.969 1206.97 344.888 1206.97 347.157C1206.97 349.426 1207.81 351.346 1209.15 352.917L1168.64 426.044C1168.14 425.869 1167.47 425.869 1166.97 425.869C1163.28 425.869 1160.27 428.312 1159.27 431.803L1077.92 431.803C1076.91 428.312 1073.73 425.869 1070.22 425.869C1069.71 425.869 1069.04 425.869 1068.54 426.044L1028.03 352.917C1029.37 351.346 1030.21 349.426 1030.21 347.157C1030.21 344.888 1029.37 342.969 1028.03 341.398L1068.54 268.271C1069.04 268.446 1069.71 268.446 1070.22 268.446Z" fill="white"/>
<path d="M695.436 159.017C696.106 159.017 696.608 159.017 697.11 158.842L737.618 231.969C736.279 233.54 735.442 235.46 735.442 237.729C735.442 242.441 739.124 246.28 743.644 246.28C747.326 246.28 750.339 243.837 751.343 240.347L832.693 240.347C833.698 243.837 836.878 246.28 840.393 246.28C844.913 246.28 848.595 242.441 848.595 237.729C848.595 235.46 847.758 233.54 846.419 231.969L886.927 158.842C887.429 159.017 888.098 159.017 888.601 159.017C893.12 159.017 896.803 155.177 896.803 150.465C896.803 145.753 893.12 141.913 888.601 141.913C887.931 141.913 887.429 141.913 886.927 142.088L846.419 68.9607C847.758 67.39 848.595 65.4702 848.595 63.2014C848.595 58.4891 844.913 54.6496 840.393 54.6496C836.711 54.6496 833.698 57.0929 832.693 60.5834L751.343 60.5834C750.339 57.0929 747.159 54.6496 743.644 54.6496C739.124 54.6496 735.442 58.4891 735.442 63.2013C735.442 65.4702 736.279 67.39 737.618 68.9607L697.11 142.088C696.608 141.913 695.938 141.913 695.436 141.913C690.917 141.913 687.234 145.753 687.234 150.465C687.234 155.177 690.917 159.017 695.436 159.017ZM743.644 71.7532C747.326 71.7532 750.339 69.3098 751.343 65.8193L832.693 65.8193C833.698 69.3098 836.878 71.7532 840.393 71.7532C841.063 71.7532 841.565 71.7532 842.067 71.5786L882.742 144.706C881.403 146.276 880.566 148.196 880.566 150.465C880.566 152.734 881.403 154.654 882.742 156.224L842.234 229.351C841.732 229.177 841.063 229.177 840.561 229.177C836.878 229.177 833.865 231.62 832.861 235.111L751.511 235.111C750.506 231.62 747.326 229.177 743.811 229.177C743.309 229.177 742.639 229.177 742.137 229.351L701.629 156.224C702.969 154.654 703.805 152.734 703.805 150.465C703.805 148.196 702.969 146.276 701.629 144.706L742.137 71.5786C742.472 71.7532 743.141 71.7532 743.644 71.7532Z" fill="white"/>
<path d="M196.79 648.915C197.46 648.915 197.962 648.915 198.464 648.74L238.972 721.867C237.633 723.438 236.796 725.358 236.796 727.626C236.796 732.339 240.478 736.178 244.998 736.178C248.68 736.178 251.693 733.735 252.698 730.244L334.048 730.244C335.052 733.735 338.232 736.178 341.747 736.178C346.267 736.178 349.949 732.339 349.949 727.626C349.949 725.358 349.112 723.438 347.773 721.867L388.281 648.74C388.783 648.915 389.453 648.915 389.955 648.915C394.474 648.915 398.157 645.075 398.157 640.363C398.157 635.651 394.474 631.811 389.955 631.811C389.285 631.811 388.783 631.811 388.281 631.985L347.773 558.859C349.112 557.288 349.949 555.368 349.949 553.099C349.949 548.387 346.267 544.547 341.748 544.547C338.065 544.547 335.052 546.991 334.048 550.481L252.698 550.481C251.693 546.991 248.513 544.547 244.998 544.547C240.478 544.547 236.796 548.387 236.796 553.099C236.796 555.368 237.633 557.288 238.972 558.859L198.464 631.985C197.962 631.811 197.293 631.811 196.79 631.811C192.271 631.811 188.588 635.651 188.588 640.363C188.588 645.075 192.271 648.915 196.79 648.915ZM244.998 561.651C248.68 561.651 251.693 559.208 252.698 555.717L334.048 555.717C335.052 559.208 338.232 561.651 341.748 561.651C342.417 561.651 342.919 561.651 343.421 561.476L383.929 634.603C382.59 636.174 381.753 638.094 381.753 640.363C381.753 642.632 382.59 644.551 383.929 646.122L343.421 719.249C342.919 719.075 342.25 719.075 341.747 719.075C338.065 719.075 335.052 721.518 334.048 725.008L252.698 725.008C251.693 721.518 248.513 719.075 244.998 719.075C244.496 719.075 243.826 719.075 243.324 719.249L202.816 646.122C204.155 644.551 204.992 642.632 204.992 640.363C204.992 638.094 204.155 636.174 202.816 634.603L243.324 561.476C243.993 561.651 244.496 561.651 244.998 561.651Z" fill="white"/>
<path d="M33.9229 750.141C34.5925 750.141 35.0946 750.141 35.5968 749.966L76.1044 823.093C74.7653 824.664 73.9284 826.583 73.9284 828.852C73.9284 833.565 77.6109 837.404 82.1303 837.404C85.8128 837.404 88.8259 834.961 89.8302 831.47L171.18 831.47C172.184 834.961 175.365 837.404 178.88 837.404C183.399 837.404 187.082 833.565 187.082 828.852C187.082 826.583 186.245 824.664 184.906 823.093L225.414 749.966C225.916 750.141 226.585 750.141 227.087 750.141C231.607 750.141 235.289 746.301 235.289 741.589C235.289 736.876 231.607 733.037 227.087 733.037C226.418 733.037 225.916 733.037 225.414 733.211L184.906 660.084C186.245 658.514 187.082 656.594 187.082 654.325C187.082 649.613 183.399 645.773 178.88 645.773C175.197 645.773 172.185 648.217 171.18 651.707L89.9975 651.707C88.9932 648.217 85.8129 645.773 82.2978 645.773C77.7783 645.773 74.0958 649.613 74.0958 654.325C74.0958 656.594 74.9327 658.514 76.2718 660.084L35.7641 733.211C35.262 733.037 34.5924 733.037 34.0903 733.037C29.5708 733.037 25.8884 736.876 25.8884 741.589C25.721 746.301 29.4035 750.141 33.9229 750.141ZM82.2978 662.877C85.9803 662.877 88.9932 660.434 89.9975 656.943L171.348 656.943C172.352 660.434 175.532 662.877 179.047 662.877C179.717 662.877 180.219 662.877 180.721 662.702L221.229 735.829C219.89 737.4 219.053 739.32 219.053 741.589C219.053 743.858 219.89 745.777 221.229 747.348L180.721 820.475C180.219 820.301 179.55 820.301 179.047 820.301C175.365 820.301 172.352 822.744 171.348 826.234L89.9975 826.234C88.9932 822.744 85.8129 820.301 82.2978 820.301C81.7956 820.301 81.1261 820.301 80.6239 820.475L40.1163 747.348C41.4554 745.777 42.2923 743.858 42.2923 741.589C42.2923 739.32 41.4554 737.4 40.1163 735.829L80.6239 662.702C81.1261 662.877 81.6282 662.877 82.2978 662.877Z" fill="white"/>
<path d="M200.306 63.201C200.975 63.201 201.478 63.2011 201.98 63.0266L242.487 136.153C241.148 137.724 240.311 139.644 240.311 141.913C240.311 146.625 243.994 150.465 248.513 150.465C252.196 150.465 255.209 148.021 256.213 144.531L337.73 144.531C338.735 148.021 341.915 150.465 345.43 150.465C349.95 150.465 353.632 146.625 353.632 141.913C353.632 139.644 352.795 137.724 351.456 136.153L391.964 63.0266C392.466 63.2011 393.136 63.2011 393.638 63.2011C398.157 63.2011 401.84 59.3615 401.84 54.6493C401.84 49.9371 398.157 46.0974 393.638 46.0974C392.968 46.0974 392.466 46.0974 391.964 46.2719L351.456 -26.855C352.795 -28.4257 353.632 -30.3455 353.632 -32.6143C353.632 -37.3266 349.95 -41.1662 345.43 -41.1662C341.748 -41.1662 338.735 -38.7228 337.73 -35.2322L256.38 -35.2323C255.376 -38.7228 252.196 -41.1662 248.681 -41.1662C244.161 -41.1662 240.479 -37.3266 240.479 -32.6143C240.479 -30.3455 241.316 -28.4257 242.655 -26.855L202.147 46.2719C201.645 46.0974 200.975 46.0974 200.473 46.0974C195.954 46.0974 192.271 49.937 192.271 54.6493C192.104 59.3615 195.786 63.201 200.306 63.201ZM248.681 -24.0626C252.363 -24.0626 255.376 -26.5059 256.38 -29.9964L337.73 -29.9964C338.735 -26.5059 341.915 -24.0626 345.43 -24.0626C346.1 -24.0626 346.602 -24.0625 347.104 -24.237L387.612 48.8898C386.273 50.4606 385.436 52.3804 385.436 54.6493C385.436 56.9181 386.273 58.8379 387.612 60.4087L347.104 133.536C346.602 133.361 345.932 133.361 345.43 133.361C341.748 133.361 338.735 135.804 337.73 139.295L256.38 139.295C255.376 135.804 252.196 133.361 248.681 133.361C248.178 133.361 247.509 133.361 247.007 133.536L206.499 60.4087C207.838 58.8379 208.675 56.9181 208.675 54.6493C208.675 52.3804 207.838 50.4605 206.499 48.8898L247.007 -24.2371C247.509 -24.0625 248.011 -24.0626 248.681 -24.0626Z" fill="white"/>
<path d="M1190.4 1046.31C1191.07 1046.31 1191.57 1046.31 1192.07 1046.14L1232.58 1119.27C1231.24 1120.84 1230.4 1122.76 1230.4 1125.03C1230.4 1129.74 1234.09 1133.58 1238.61 1133.58C1242.29 1133.58 1245.3 1131.13 1246.31 1127.64L1327.66 1127.64C1328.66 1131.13 1331.84 1133.58 1335.36 1133.58C1339.88 1133.58 1343.56 1129.74 1343.56 1125.03C1343.56 1122.76 1342.72 1120.84 1341.38 1119.27L1381.89 1046.14C1382.39 1046.31 1383.06 1046.31 1383.56 1046.31C1388.08 1046.31 1391.77 1042.47 1391.77 1037.76C1391.77 1033.05 1388.08 1029.21 1383.56 1029.21C1382.89 1029.21 1382.39 1029.21 1381.89 1029.38L1341.38 956.257C1342.72 954.686 1343.56 952.767 1343.56 950.498C1343.56 945.786 1339.88 941.946 1335.36 941.946C1331.67 941.946 1328.66 944.389 1327.66 947.88L1246.31 947.88C1245.3 944.389 1242.12 941.946 1238.61 941.946C1234.09 941.946 1230.4 945.786 1230.4 950.498C1230.4 952.767 1231.24 954.686 1232.58 956.257L1192.07 1029.38C1191.57 1029.21 1190.9 1029.21 1190.4 1029.21C1185.88 1029.21 1182.2 1033.05 1182.2 1037.76C1182.2 1042.47 1185.88 1046.31 1190.4 1046.31ZM1238.61 959.05C1242.29 959.05 1245.3 956.606 1246.31 953.116L1327.66 953.116C1328.66 956.606 1331.84 959.05 1335.36 959.05C1336.03 959.05 1336.53 959.05 1337.03 958.875L1377.54 1032C1376.2 1033.57 1375.36 1035.49 1375.36 1037.76C1375.36 1040.03 1376.2 1041.95 1377.54 1043.52L1337.03 1116.65C1336.53 1116.47 1335.86 1116.47 1335.36 1116.47C1331.67 1116.47 1328.66 1118.92 1327.66 1122.41L1246.31 1122.41C1245.3 1118.92 1242.12 1116.47 1238.61 1116.47C1238.1 1116.47 1237.43 1116.47 1236.93 1116.65L1196.43 1043.52C1197.76 1041.95 1198.6 1040.03 1198.6 1037.76C1198.6 1035.49 1197.76 1033.57 1196.43 1032L1236.93 958.875C1237.43 959.05 1238.1 959.05 1238.61 959.05Z" fill="white"/>
<path d="M1025.19 945.611C1025.86 945.611 1026.36 945.611 1026.86 945.437L1067.54 1018.56C1066.2 1020.13 1065.36 1022.05 1065.36 1024.32C1065.36 1029.04 1069.04 1032.87 1073.56 1032.87C1077.25 1032.87 1080.26 1030.43 1081.26 1026.94L1162.61 1026.94C1163.62 1030.43 1166.8 1032.87 1170.31 1032.87C1174.83 1032.87 1178.51 1029.04 1178.51 1024.32C1178.51 1022.05 1177.68 1020.13 1176.34 1018.56L1216.85 945.437C1217.35 945.611 1218.02 945.611 1218.52 945.611C1223.04 945.611 1226.72 941.772 1226.72 937.059C1226.72 932.347 1223.04 928.507 1218.52 928.507C1217.85 928.507 1217.35 928.507 1216.85 928.682L1176.34 855.555C1177.68 853.984 1178.51 852.065 1178.51 849.796C1178.51 845.083 1174.83 841.244 1170.31 841.244C1166.63 841.244 1163.62 843.687 1162.61 847.178L1081.26 847.178C1080.26 843.687 1077.08 841.244 1073.56 841.244C1069.04 841.244 1065.36 845.083 1065.36 849.796C1065.36 852.065 1066.2 853.984 1067.54 855.555L1027.03 928.682C1026.53 928.507 1025.86 928.507 1025.36 928.507C1020.84 928.507 1017.15 932.347 1017.15 937.059C1017.15 941.772 1020.67 945.611 1025.19 945.611ZM1073.4 858.347C1077.08 858.347 1080.09 855.904 1081.1 852.414L1162.61 852.414C1163.62 855.904 1166.8 858.347 1170.31 858.347C1170.98 858.347 1171.48 858.347 1171.99 858.173L1212.49 931.3C1211.16 932.871 1210.32 934.79 1210.32 937.059C1210.32 939.328 1211.16 941.248 1212.49 942.819L1171.99 1015.95C1171.48 1015.77 1170.81 1015.77 1170.31 1015.77C1166.63 1015.77 1163.62 1018.21 1162.61 1021.71L1081.26 1021.71C1080.26 1018.21 1077.08 1015.77 1073.56 1015.77C1073.06 1015.77 1072.39 1015.77 1071.89 1015.95L1031.38 942.819C1032.72 941.248 1033.56 939.328 1033.56 937.059C1033.56 934.79 1032.72 932.871 1031.38 931.3L1071.89 858.173C1072.39 858.347 1072.89 858.347 1073.4 858.347Z" fill="white"/>
<path d="M860.982 1046.31C861.651 1046.31 862.153 1046.31 862.656 1046.14L903.163 1119.27C901.824 1120.84 900.987 1122.76 900.987 1125.03C900.987 1129.74 904.67 1133.58 909.189 1133.58C912.872 1133.58 915.885 1131.13 916.889 1127.64L998.239 1127.64C999.243 1131.13 1002.42 1133.58 1005.94 1133.58C1010.46 1133.58 1014.14 1129.74 1014.14 1125.03C1014.14 1122.76 1013.3 1120.84 1011.96 1119.27L1052.47 1046.14C1052.97 1046.31 1053.64 1046.31 1054.15 1046.31C1058.67 1046.31 1062.35 1042.47 1062.35 1037.76C1062.35 1033.05 1058.67 1029.21 1054.15 1029.21C1053.48 1029.21 1052.97 1029.21 1052.47 1029.38L1011.96 956.257C1013.3 954.686 1014.14 952.767 1014.14 950.498C1014.14 945.786 1010.46 941.946 1005.94 941.946C1002.26 941.946 999.243 944.389 998.239 947.88L916.889 947.88C915.885 944.389 912.704 941.946 909.189 941.946C904.67 941.946 900.987 945.786 900.987 950.498C900.987 952.767 901.824 954.686 903.163 956.257L862.656 1029.38C862.153 1029.21 861.484 1029.21 860.982 1029.21C856.462 1029.21 852.78 1033.05 852.78 1037.76C852.78 1042.47 856.462 1046.31 860.982 1046.31ZM909.189 959.05C912.872 959.05 915.885 956.606 916.889 953.116L998.239 953.116C999.243 956.606 1002.42 959.05 1005.94 959.05C1006.61 959.05 1007.11 959.05 1007.61 958.875L1048.12 1032C1046.78 1033.57 1045.94 1035.49 1045.94 1037.76C1045.94 1040.03 1046.78 1041.95 1048.12 1043.52L1007.61 1116.65C1007.11 1116.47 1006.44 1116.47 1005.94 1116.47C1002.26 1116.47 999.243 1118.92 998.239 1122.41L916.889 1122.41C915.885 1118.92 912.704 1116.47 909.189 1116.47C908.687 1116.47 908.017 1116.47 907.515 1116.65L867.008 1043.52C868.347 1041.95 869.184 1040.03 869.184 1037.76C869.184 1035.49 868.347 1033.57 867.008 1032L907.515 958.875C908.017 959.05 908.687 959.05 909.189 959.05Z" fill="white"/>
<path d="M900.652 1056.61L937.979 1056.61L937.979 1061.67L937.979 1095.36L973.968 1095.36L973.968 1056.61L1011.29 1056.61L1011.29 1019.09L973.968 1019.09L973.968 980.167L937.979 980.167L937.979 1019.09L900.652 1019.09L900.652 1056.61Z" fill="#FFC50C"/>
<path d="M1009.79 479.623L1046.95 479.623L1046.95 484.859L1046.95 518.368L1082.94 518.368L1082.94 479.623L1120.26 479.623L1120.26 442.1L1082.94 442.1L1082.94 403.355L1046.95 403.355L1046.95 442.1L1009.79 442.1L1009.79 479.623Z" fill="white"/>
<path d="M689.745 853.81L726.905 853.81L727.072 859.046L727.072 892.555L763.06 892.555L763.06 853.81L800.22 853.81L800.22 816.287L763.06 816.287L763.06 777.542L727.072 777.542L727.072 816.287L689.745 816.287L689.745 853.81Z" fill="white"/>
<path d="M47.1465 474.213L84.3063 474.213L84.3063 479.449L84.3063 513.133L120.295 513.133L120.295 474.213L157.622 474.213L157.622 436.864L120.295 436.864L120.295 397.944L84.3064 397.944L84.3064 436.864L47.1465 436.864L47.1465 474.213Z" fill="white"/>
<path d="M238.302 272.285L275.462 272.285L275.462 277.521L275.462 311.03L311.451 311.03L311.451 272.285L348.778 272.285L348.778 234.761L311.451 234.761L311.451 196.016L275.462 196.016L275.462 234.761L238.302 234.761L238.302 272.285Z" fill="white"/>
</svg>
